<?xml version="1.0" encoding="utf-8"?>
<!-- Generator: Adobe Illustrator 27.1.1, SVG Export Plug-In . SVG Version: 6.00 Build 0)  -->
<svg version="1.1" id="图层_1" xmlns="http://www.w3.org/2000/svg" xmlns:xlink="http://www.w3.org/1999/xlink" x="0px" y="0px"
	 viewBox="0 0 850.39 850.39" style="enable-background:new 0 0 850.39 850.39;" xml:space="preserve">
<style type="text/css">
	.st0{fill:url(#SVGID_1_);}
	.st1{fill:url(#SVGID_00000134247100127066736980000016677467101748485535_);}
	.st2{fill:url(#SVGID_00000146482476706948982400000010706108907462550930_);}
	.st3{fill:url(#SVGID_00000103260456917611424040000007314383004544803246_);}
	.st4{fill:url(#SVGID_00000054267239772389648790000017808261181477150885_);}
	.st5{fill:url(#SVGID_00000054961150999103157000000011774139681021187515_);}
	.st6{fill:url(#SVGID_00000169540306969211194590000015826159930889184690_);}
	.st7{fill:url(#SVGID_00000128449183417934097310000016333379207750842524_);}
</style>
<linearGradient id="SVGID_1_" gradientUnits="userSpaceOnUse" x1="296.2984" y1="349.8493" x2="555.7016" y2="349.8493">
	<stop  offset="0" style="stop-color:#6DC5C6"/>
	<stop  offset="0.4916" style="stop-color:#23B9E5"/>
	<stop  offset="1" style="stop-color:#2866B1"/>
</linearGradient>
<polygon class="st0" points="426,275.28 452.46,290.01 348.92,349.5 426.14,394.68 529.39,334.34 555.7,350.07 426.71,424.42 
	296.3,349.21 "/>
<linearGradient id="SVGID_00000072988466553485612730000006236607016249031055_" gradientUnits="userSpaceOnUse" x1="439.4991" y1="386.9722" x2="400.6269" y2="319.6436">
	<stop  offset="0" style="stop-color:#6DC5C6"/>
	<stop  offset="0.4916" style="stop-color:#23B9E5"/>
	<stop  offset="1" style="stop-color:#2866B1"/>
</linearGradient>
<polygon style="fill:url(#SVGID_00000072988466553485612730000006236607016249031055_);" points="426,335.2 426.14,394.68 
	452.57,379.24 452.46,290.01 348.92,349.5 374.88,364.69 "/>
<linearGradient id="SVGID_00000085208713932725138310000014470463874576887438_" gradientUnits="userSpaceOnUse" x1="432.5803" y1="338.9942" x2="406.8569" y2="383.5485">
	<stop  offset="0" style="stop-color:#6DC5C6"/>
	<stop  offset="0.4916" style="stop-color:#23B9E5"/>
	<stop  offset="1" style="stop-color:#2866B1"/>
</linearGradient>
<polygon style="fill:url(#SVGID_00000085208713932725138310000014470463874576887438_);" points="400.75,379.82 400.6,349.85 
	426,335.2 426.14,394.68 "/>
<linearGradient id="SVGID_00000100355517112454072140000002278593784479714946_" gradientUnits="userSpaceOnUse" x1="394.0674" y1="405.5718" x2="328.409" y2="519.2955">
	<stop  offset="0" style="stop-color:#6DC5C6"/>
	<stop  offset="0.4916" style="stop-color:#23B9E5"/>
	<stop  offset="1" style="stop-color:#2866B1"/>
</linearGradient>
<polygon style="fill:url(#SVGID_00000100355517112454072140000002278593784479714946_);" points="321.47,514.52 296.3,499.65 
	296.3,349.21 426.71,424.42 426.14,575.72 400.6,560.85 400.6,440.44 321.75,394.68 "/>
<linearGradient id="SVGID_00000005243344817392126380000005419668525897107619_" gradientUnits="userSpaceOnUse" x1="523.674" y1="519.6223" x2="458.2108" y2="406.2367">
	<stop  offset="0" style="stop-color:#6DC5C6"/>
	<stop  offset="0.4916" style="stop-color:#23B9E5"/>
	<stop  offset="1" style="stop-color:#2866B1"/>
</linearGradient>
<polygon style="fill:url(#SVGID_00000005243344817392126380000005419668525897107619_);" points="452.57,559.71 426.14,575.72 
	426.71,424.42 555.7,350.07 555.7,500.5 530.53,515.66 530.25,394.68 452.57,439.87 "/>
<linearGradient id="SVGID_00000084527358091667577170000018064490770722016136_" gradientUnits="userSpaceOnUse" x1="537.2026" y1="398.6989" x2="484.594" y2="489.8196">
	<stop  offset="0" style="stop-color:#6DC5C6"/>
	<stop  offset="0.4916" style="stop-color:#23B9E5"/>
	<stop  offset="1" style="stop-color:#2866B1"/>
</linearGradient>
<polygon style="fill:url(#SVGID_00000084527358091667577170000018064490770722016136_);" points="503.08,469.62 452.57,439.87 
	452.57,471.33 530.53,515.66 530.25,394.68 502.99,410.54 "/>
<linearGradient id="SVGID_00000144335394610660838910000012786575035576357789_" gradientUnits="userSpaceOnUse" x1="452.572" y1="447.4552" x2="503.0774" y2="447.4552">
	<stop  offset="0" style="stop-color:#6DC5C6"/>
	<stop  offset="0.4916" style="stop-color:#23B9E5"/>
	<stop  offset="1" style="stop-color:#2866B1"/>
</linearGradient>
<polygon style="fill:url(#SVGID_00000144335394610660838910000012786575035576357789_);" points="503.03,439.3 477.63,425.29 
	452.57,439.87 503.08,469.62 "/>
<linearGradient id="SVGID_00000008871771047800624580000015043139610585652890_" gradientUnits="userSpaceOnUse" x1="328.0837" y1="514.5179" x2="328.0837" y2="394.6833">
	<stop  offset="0" style="stop-color:#71C4B3"/>
	<stop  offset="0" style="stop-color:#59BBC1"/>
	<stop  offset="0" style="stop-color:#36B1CE"/>
	<stop  offset="0" style="stop-color:#22AED2"/>
	<stop  offset="1" style="stop-color:#2355A5"/>
</linearGradient>
<polygon style="fill:url(#SVGID_00000008871771047800624580000015043139610585652890_);" points="334.7,402.2 334.7,502.74 
	321.47,514.52 321.47,394.68 "/>
</svg>
